<svg version="1.1" xmlns="http://www.w3.org/2000/svg" viewBox="0 0 2120.5870139810568 1117.1428571428573" width="4241.1740279621135" height="2234.2857142857147">
  <!-- svg-source:excalidraw -->
  
  <defs>
    <style class="style-fonts">
      @font-face {
        font-family: "Virgil";
        src: url("https://excalidraw.com/Virgil.woff2");
      }
      @font-face {
        font-family: "Cascadia";
        src: url("https://excalidraw.com/Cascadia.woff2");
      }
    </style>
  </defs>
  <rect x="0" y="0" width="2120.5870139810568" height="1117.1428571428573" fill="#ffffff"></rect><g transform="translate(137.14285714285717 10) rotate(0 224.13671875 144.89999999999986)"><text x="0" y="0" font-family="Helvetica, Segoe UI Emoji" font-size="28px" fill="#1e1e1e" text-anchor="start" style="white-space: pre;" direction="ltr" dominant-baseline="text-before-edge">SENSORY GAME</text><text x="0" y="32.199999999999996" font-family="Helvetica, Segoe UI Emoji" font-size="28px" fill="#1e1e1e" text-anchor="start" style="white-space: pre;" direction="ltr" dominant-baseline="text-before-edge"></text><text x="0" y="64.39999999999999" font-family="Helvetica, Segoe UI Emoji" font-size="28px" fill="#1e1e1e" text-anchor="start" style="white-space: pre;" direction="ltr" dominant-baseline="text-before-edge">As a user I can: </text><text x="0" y="96.6" font-family="Helvetica, Segoe UI Emoji" font-size="28px" fill="#1e1e1e" text-anchor="start" style="white-space: pre;" direction="ltr" dominant-baseline="text-before-edge">-click buttons to change background</text><text x="0" y="128.79999999999998" font-family="Helvetica, Segoe UI Emoji" font-size="28px" fill="#1e1e1e" text-anchor="start" style="white-space: pre;" direction="ltr" dominant-baseline="text-before-edge">- hear sound on click</text><text x="0" y="160.99999999999997" font-family="Helvetica, Segoe UI Emoji" font-size="28px" fill="#1e1e1e" text-anchor="start" style="white-space: pre;" direction="ltr" dominant-baseline="text-before-edge">- enable/disable dark mode</text><text x="0" y="193.2" font-family="Helvetica, Segoe UI Emoji" font-size="28px" fill="#1e1e1e" text-anchor="start" style="white-space: pre;" direction="ltr" dominant-baseline="text-before-edge">- mute all sounds</text><text x="0" y="225.39999999999998" font-family="Helvetica, Segoe UI Emoji" font-size="28px" fill="#1e1e1e" text-anchor="start" style="white-space: pre;" direction="ltr" dominant-baseline="text-before-edge"></text><text x="0" y="257.59999999999997" font-family="Helvetica, Segoe UI Emoji" font-size="28px" fill="#1e1e1e" text-anchor="start" style="white-space: pre;" direction="ltr" dominant-baseline="text-before-edge"></text></g><g stroke-linecap="round" transform="translate(231.4285714285714 330) rotate(0 280 380)"><path d="M32 0 M32 0 C142.77 -0.75, 253.78 -1.41, 528 0 M32 0 C198.09 0.08, 363.68 0.26, 528 0 M528 0 C547.89 1.83, 559.98 10.24, 560 32 M528 0 C549.69 -2.08, 561.82 11.93, 560 32 M560 32 C562.1 306.57, 562.03 580.82, 560 728 M560 32 C558.52 202.26, 558.26 372.1, 560 728 M560 728 C558.21 749.26, 550.66 759.19, 528 760 M560 728 C558.59 749.08, 549.85 760.53, 528 760 M528 760 C355.68 761.17, 183.03 760.96, 32 760 M528 760 C426.36 761.63, 324.3 761.45, 32 760 M32 760 C10.35 759.83, 1.43 749.19, 0 728 M32 760 C12.65 762.26, 1.39 748.61, 0 728 M0 728 C-2.82 456.04, -2.19 184.45, 0 32 M0 728 C-1.41 478.61, -1.8 229.93, 0 32 M0 32 C-1.02 10.97, 9.75 -0.7, 32 0 M0 32 C-1.88 10.41, 9.58 0.59, 32 0" stroke="#1e1e1e" stroke-width="1" fill="none"></path></g><g stroke-linecap="round" transform="translate(334.2857142857143 512.8571428571431) rotate(0 42.14285714285717 48.57142857142844)"><path d="M21.07 0 M21.07 0 C31.29 0.56, 44.74 1.98, 63.21 0 M21.07 0 C36.86 -0.12, 52 -0.73, 63.21 0 M63.21 0 C75.43 -1.38, 82.82 5.97, 84.29 21.07 M63.21 0 C76.16 2.2, 83.09 5.54, 84.29 21.07 M84.29 21.07 C82.67 37.8, 85.71 55.14, 84.29 76.07 M84.29 21.07 C82.88 32.81, 84.29 44.4, 84.29 76.07 M84.29 76.07 C82.47 89.01, 78.19 96.84, 63.21 97.14 M84.29 76.07 C84.76 88.54, 76.79 98.27, 63.21 97.14 M63.21 97.14 C47.88 98.93, 32.53 96.29, 21.07 97.14 M63.21 97.14 C54.06 96.19, 43.94 96.32, 21.07 97.14 M21.07 97.14 C8.79 99.11, 0.04 90.67, 0 76.07 M21.07 97.14 C7.06 95.18, -0.55 91.8, 0 76.07 M0 76.07 C-0.66 53.22, -1.43 32.82, 0 21.07 M0 76.07 C-0.28 59.46, 0.31 42.75, 0 21.07 M0 21.07 C-0.84 8.03, 5.42 1.69, 21.07 0 M0 21.07 C-1.02 6.69, 8.23 1.38, 21.07 0" stroke="#1e1e1e" stroke-width="1" fill="none"></path></g><g stroke-linecap="round" transform="translate(467.8571428571427 514.2857142857147) rotate(0 42.14285714285717 48.57142857142844)"><path d="M21.07 0 M21.07 0 C36.14 0.11, 50.02 -1.56, 63.21 0 M21.07 0 C36.08 -0.35, 49.41 -0.36, 63.21 0 M63.21 0 C75.55 -0.48, 85.75 8.72, 84.29 21.07 M63.21 0 C77.74 -0.93, 83.66 5.08, 84.29 21.07 M84.29 21.07 C83.39 34.44, 83.12 46.07, 84.29 76.07 M84.29 21.07 C84.33 37.52, 84.67 55.12, 84.29 76.07 M84.29 76.07 C83.99 91.16, 78.46 95.84, 63.21 97.14 M84.29 76.07 C85.43 91.78, 77.84 99.02, 63.21 97.14 M63.21 97.14 C46.86 98.34, 29.5 95.62, 21.07 97.14 M63.21 97.14 C51.29 96.15, 37.54 97.37, 21.07 97.14 M21.07 97.14 C8.95 95.88, 1.39 90.69, 0 76.07 M21.07 97.14 C7.26 96.88, -0.26 92.33, 0 76.07 M0 76.07 C-0.37 63.6, 1.6 52.94, 0 21.07 M0 76.07 C0.15 60.85, 0.78 46.33, 0 21.07 M0 21.07 C-1.12 5.88, 8.99 1.25, 21.07 0 M0 21.07 C-0.43 4.94, 7.15 -0.48, 21.07 0" stroke="#1e1e1e" stroke-width="1" fill="none"></path></g><g stroke-linecap="round" transform="translate(597.8571428571429 515.7142857142853) rotate(0 42.14285714285717 48.57142857142844)"><path d="M21.07 0 M21.07 0 C35.29 -1.42, 49.19 -0.71, 63.21 0 M21.07 0 C32.45 0.25, 45.85 0, 63.21 0 M63.21 0 C78.9 1.55, 83.05 7.34, 84.29 21.07 M63.21 0 C76.75 1.3, 82.12 5.2, 84.29 21.07 M84.29 21.07 C85.53 36.33, 83.52 55.41, 84.29 76.07 M84.29 21.07 C84.22 42.98, 83.82 64.56, 84.29 76.07 M84.29 76.07 C86.21 88.65, 78.33 99, 63.21 97.14 M84.29 76.07 C84.19 90.09, 79.44 99.18, 63.21 97.14 M63.21 97.14 C52.73 96.2, 42.8 96.32, 21.07 97.14 M63.21 97.14 C53.56 97.37, 41.76 97.61, 21.07 97.14 M21.07 97.14 C6.61 98.47, 1.21 90.9, 0 76.07 M21.07 97.14 C7.99 98.76, -1.88 91.8, 0 76.07 M0 76.07 C0.56 59.43, 1.68 41.95, 0 21.07 M0 76.07 C0.27 53.15, 0.33 32.88, 0 21.07 M0 21.07 C0.48 5.71, 8.99 -1.8, 21.07 0 M0 21.07 C0.47 5.37, 6.2 -2.02, 21.07 0" stroke="#1e1e1e" stroke-width="1" fill="none"></path></g><g stroke-linecap="round" transform="translate(337.85714285714283 671.428571428572) rotate(0 42.14285714285717 48.57142857142844)"><path d="M21.07 0 M21.07 0 C31.69 0.98, 45.41 -0.2, 63.21 0 M21.07 0 C32.5 0.13, 46.34 -0.44, 63.21 0 M63.21 0 C77.24 1.9, 86.06 6.33, 84.29 21.07 M63.21 0 C78.08 1.67, 85.08 5.58, 84.29 21.07 M84.29 21.07 C82.84 44.88, 85.22 64.4, 84.29 76.07 M84.29 21.07 C84.98 33.19, 84.71 44.52, 84.29 76.07 M84.29 76.07 C85.7 88.49, 78.72 97.06, 63.21 97.14 M84.29 76.07 C84.71 87.82, 78.02 96.72, 63.21 97.14 M63.21 97.14 C45.58 97.81, 30.29 95.65, 21.07 97.14 M63.21 97.14 C49.95 98.23, 37.11 97.45, 21.07 97.14 M21.07 97.14 C5.58 96.43, -1.76 91.81, 0 76.07 M21.07 97.14 C8.81 95.36, 0.54 90.46, 0 76.07 M0 76.07 C-2.37 59.59, -0.44 38.27, 0 21.07 M0 76.07 C-0.41 62.44, -0.52 48.65, 0 21.07 M0 21.07 C-0.07 6.62, 7.17 1.73, 21.07 0 M0 21.07 C-0.69 7.56, 4.77 1.54, 21.07 0" stroke="#1e1e1e" stroke-width="1" fill="none"></path></g><g stroke-linecap="round" transform="translate(690.7142857142858 352.8571428571422) rotate(0 40.71428571428578 21.5)"><path d="M10.75 0 M10.75 0 C28.38 -0.18, 48.16 -1.3, 70.68 0 M10.75 0 C22.69 -0.23, 36.32 -0.18, 70.68 0 M70.68 0 C79.77 -1.18, 79.59 5.15, 81.43 10.75 M70.68 0 C77.95 -1.95, 80.45 3.12, 81.43 10.75 M81.43 10.75 C80.05 18.18, 81.25 21.69, 81.43 32.25 M81.43 10.75 C81.85 16.37, 82.29 23.26, 81.43 32.25 M81.43 32.25 C80.7 39.12, 76.51 44.87, 70.68 43 M81.43 32.25 C83.22 41.11, 77.53 43.65, 70.68 43 M70.68 43 C57.38 43, 41.87 43.33, 10.75 43 M70.68 43 C49.79 43.1, 28.53 43.51, 10.75 43 M10.75 43 C3 43.32, -0.98 37.79, 0 32.25 M10.75 43 C2.66 45.26, -0.92 38.84, 0 32.25 M0 32.25 C0.94 24.08, -1.94 14.44, 0 10.75 M0 32.25 C0.64 26.9, -0.5 20.58, 0 10.75 M0 10.75 C1.75 3.95, 2.11 0.14, 10.75 0 M0 10.75 C-1.59 5.71, 3.41 -1, 10.75 0" stroke="#1e1e1e" stroke-width="1" fill="none"></path></g><g transform="translate(706.5897042410716 362.8571428571422) rotate(0 24.8388671875 11.5)"><text x="24.8388671875" y="0" font-family="Helvetica, Segoe UI Emoji" font-size="20px" fill="#1e1e1e" text-anchor="middle" style="white-space: pre;" direction="ltr" dominant-baseline="text-before-edge">on/off</text></g><g stroke-linecap="round" transform="translate(596.4285714285713 668.5714285714284) rotate(0 42.14285714285717 48.57142857142844)"><path d="M21.07 0 M21.07 0 C33.38 0.97, 49.21 -0.12, 63.21 0 M21.07 0 C34.79 -0.13, 50.15 -0.24, 63.21 0 M63.21 0 C78.98 -0.58, 84.6 6.04, 84.29 21.07 M63.21 0 C75.39 -0.92, 86.54 6.1, 84.29 21.07 M84.29 21.07 C84.64 37.1, 84.59 49.35, 84.29 76.07 M84.29 21.07 C84.68 33.55, 84.56 44.25, 84.29 76.07 M84.29 76.07 C84.11 91.87, 77.63 95.67, 63.21 97.14 M84.29 76.07 C84.45 88.53, 79.39 96.97, 63.21 97.14 M63.21 97.14 C52.64 97.72, 40.22 97.08, 21.07 97.14 M63.21 97.14 C48 96.86, 34.53 96.86, 21.07 97.14 M21.07 97.14 C8.66 96.6, -1.82 90.55, 0 76.07 M21.07 97.14 C5.63 96.55, 1.87 90.3, 0 76.07 M0 76.07 C-1.45 56.42, 1.8 39.71, 0 21.07 M0 76.07 C0.51 53.55, 0.14 32.72, 0 21.07 M0 21.07 C1.2 5.95, 8.36 -0.71, 21.07 0 M0 21.07 C-1.13 5.77, 5.6 -2.13, 21.07 0" stroke="#1e1e1e" stroke-width="1" fill="none"></path></g><g stroke-linecap="round" transform="translate(338.5714285714285 809.2857142857156) rotate(0 42.14285714285717 48.57142857142844)"><path d="M21.07 0 M21.07 0 C37.62 0.35, 51.15 -1.38, 63.21 0 M21.07 0 C30 -0.96, 40.29 0.85, 63.21 0 M63.21 0 C75.89 -1.09, 83.86 6.03, 84.29 21.07 M63.21 0 C77.55 0.73, 83.85 7.55, 84.29 21.07 M84.29 21.07 C84.24 38.57, 85.87 53.67, 84.29 76.07 M84.29 21.07 C84.42 39.33, 83.55 59.24, 84.29 76.07 M84.29 76.07 C83.2 88.41, 79.02 98.92, 63.21 97.14 M84.29 76.07 C84.63 92.35, 77.4 97.91, 63.21 97.14 M63.21 97.14 C51.16 98.3, 39.08 97.17, 21.07 97.14 M63.21 97.14 C52.61 97.2, 42.53 96.38, 21.07 97.14 M21.07 97.14 C6.18 98.14, 0.66 91.35, 0 76.07 M21.07 97.14 C9.18 98.51, -2.2 88.81, 0 76.07 M0 76.07 C-0.04 63.64, -1.45 49.81, 0 21.07 M0 76.07 C0.05 57.58, 0.19 41.26, 0 21.07 M0 21.07 C0.98 6.38, 5.1 -1.18, 21.07 0 M0 21.07 C1.52 7.71, 5.66 1.91, 21.07 0" stroke="#1e1e1e" stroke-width="1" fill="none"></path></g><g stroke-linecap="round" transform="translate(468.5714285714285 810.7142857142862) rotate(0 42.14285714285717 48.57142857142844)"><path d="M21.07 0 M21.07 0 C36.04 -1.23, 50.35 -1.84, 63.21 0 M21.07 0 C36 1.34, 48.72 -0.21, 63.21 0 M63.21 0 C76.84 -1, 84.53 7.66, 84.29 21.07 M63.21 0 C76.82 0.53, 84.19 6.24, 84.29 21.07 M84.29 21.07 C86.1 34.19, 85.22 46.89, 84.29 76.07 M84.29 21.07 C83.77 42.97, 83.87 63.47, 84.29 76.07 M84.29 76.07 C86.04 91.9, 77.56 99.08, 63.21 97.14 M84.29 76.07 C84.42 90.88, 76.57 97.9, 63.21 97.14 M63.21 97.14 C46.92 97.14, 32.35 96.94, 21.07 97.14 M63.21 97.14 C48.52 96.11, 33.41 97.58, 21.07 97.14 M21.07 97.14 C7.68 98.37, 1.87 91.3, 0 76.07 M21.07 97.14 C4.83 95.83, -1.64 92.06, 0 76.07 M0 76.07 C-1.1 62, 0.34 51.59, 0 21.07 M0 76.07 C0.34 58.31, 0.25 38.81, 0 21.07 M0 21.07 C-1.92 5.84, 8.35 0.6, 21.07 0 M0 21.07 C-1.36 8.93, 4.76 1.21, 21.07 0" stroke="#1e1e1e" stroke-width="1" fill="none"></path></g><g stroke-linecap="round" transform="translate(597.1428571428569 806.4285714285716) rotate(0 42.14285714285717 48.57142857142844)"><path d="M21.07 0 M21.07 0 C33.42 -1.48, 49.73 -0.36, 63.21 0 M21.07 0 C29.62 -0.97, 39.33 -0.92, 63.21 0 M63.21 0 C77.51 0.63, 83.9 7.48, 84.29 21.07 M63.21 0 C77.17 -0.78, 82.85 7.18, 84.29 21.07 M84.29 21.07 C85.66 40.6, 86.64 61.24, 84.29 76.07 M84.29 21.07 C83.39 32.93, 84.81 47.38, 84.29 76.07 M84.29 76.07 C84.59 92.06, 77.38 97.81, 63.21 97.14 M84.29 76.07 C83.59 90.87, 78.49 96.35, 63.21 97.14 M63.21 97.14 C47.51 96.7, 34.96 96.58, 21.07 97.14 M63.21 97.14 C50.78 97.24, 39.52 97.35, 21.07 97.14 M21.07 97.14 C8.9 98.33, -1.91 88.98, 0 76.07 M21.07 97.14 C5.38 99.09, -1.49 90.61, 0 76.07 M0 76.07 C0.73 60.6, 0.99 43.18, 0 21.07 M0 76.07 C0.17 63.23, -1.28 50.45, 0 21.07 M0 21.07 C1.32 7.62, 5.84 1.66, 21.07 0 M0 21.07 C-2.27 8.23, 9.26 2.01, 21.07 0" stroke="#1e1e1e" stroke-width="1" fill="none"></path></g><g transform="translate(465.7142857142856 680) rotate(0 48.2412109375 32.200000000000045)"><text x="0" y="0" font-family="Helvetica, Segoe UI Emoji" font-size="28px" fill="#1e1e1e" text-anchor="start" style="white-space: pre;" direction="ltr" dominant-baseline="text-before-edge">Click </text><text x="0" y="32.199999999999996" font-family="Helvetica, Segoe UI Emoji" font-size="28px" fill="#1e1e1e" text-anchor="start" style="white-space: pre;" direction="ltr" dominant-baseline="text-before-edge">Colours</text></g><g transform="translate(532.8571428571427 354.2857142857147) rotate(0 72.3583984375 16.09999999999991)"><text x="0" y="0" font-family="Helvetica, Segoe UI Emoji" font-size="28px" fill="#1e1e1e" text-anchor="start" style="white-space: pre;" direction="ltr" dominant-baseline="text-before-edge">Dark Mode:</text></g><g transform="translate(597.6416015625 415.3285714285712) rotate(0 44.3720703125 16.09999999999991)"><text x="0" y="0" font-family="Helvetica, Segoe UI Emoji" font-size="28px" fill="#1e1e1e" text-anchor="start" style="white-space: pre;" direction="ltr" dominant-baseline="text-before-edge">Sound:</text></g><g stroke-linecap="round" transform="translate(690.7142857142858 412.7857142857147) rotate(0 40.71428571428578 21.5)"><path d="M10.75 0 M10.75 0 C31.74 -0.7, 54.38 1.76, 70.68 0 M10.75 0 C34.54 1.2, 56.56 -0.16, 70.68 0 M70.68 0 C77.84 1.53, 83.1 4.7, 81.43 10.75 M70.68 0 C78.67 -0.36, 80.76 3.11, 81.43 10.75 M81.43 10.75 C83.14 18.51, 80.37 25.49, 81.43 32.25 M81.43 10.75 C82.2 15.81, 80.73 23.21, 81.43 32.25 M81.43 32.25 C82.82 40.77, 77.1 42.06, 70.68 43 M81.43 32.25 C82.47 38.79, 79.26 43.12, 70.68 43 M70.68 43 C48 41.65, 25.31 43.74, 10.75 43 M70.68 43 C55.56 43.6, 42.99 43.32, 10.75 43 M10.75 43 C3.67 42.48, -0.28 40.26, 0 32.25 M10.75 43 C3.11 41.3, -1.96 39.61, 0 32.25 M0 32.25 C1.11 29.45, 0.58 22.39, 0 10.75 M0 32.25 C-0.92 26.62, 0.26 19.11, 0 10.75 M0 10.75 C0.64 3.89, 5.39 -1.98, 10.75 0 M0 10.75 C0.08 2.64, 4.56 0.52, 10.75 0" stroke="#1e1e1e" stroke-width="1" fill="none"></path></g><g transform="translate(706.5897042410716 422.7857142857147) rotate(0 24.8388671875 11.5)"><text x="24.8388671875" y="0" font-family="Helvetica, Segoe UI Emoji" font-size="20px" fill="#1e1e1e" text-anchor="middle" style="white-space: pre;" direction="ltr" dominant-baseline="text-before-edge">on/off</text></g><g stroke-linecap="round" transform="translate(215.71428571428572 318.5714285714289) rotate(0 294.2857142857143 394.2857142857142)"><path d="M32 0 M32 0 C211.68 1.51, 392.24 1.62, 556.57 0 M32 0 C241.3 -0.15, 450.99 -0.17, 556.57 0 M556.57 0 C576.42 -1.7, 588.74 9.08, 588.57 32 M556.57 0 C578.96 -1.55, 589.96 12.91, 588.57 32 M588.57 32 C587.86 273.39, 587.27 516.35, 588.57 756.57 M588.57 32 C588.01 264.64, 587.56 496.57, 588.57 756.57 M588.57 756.57 C587.75 778.75, 578.36 787.51, 556.57 788.57 M588.57 756.57 C586.91 776.32, 578.1 790.65, 556.57 788.57 M556.57 788.57 C404.72 790.7, 252.88 790.22, 32 788.57 M556.57 788.57 C414.16 786.86, 272.47 786.75, 32 788.57 M32 788.57 C12.03 788.6, -0.86 779.76, 0 756.57 M32 788.57 C8.83 787.32, -1.25 776.96, 0 756.57 M0 756.57 C-2.14 506.39, -3.08 256.46, 0 32 M0 756.57 C-0.61 539.26, -0.54 321.89, 0 32 M0 32 C1.25 9.95, 9.22 0.18, 32 0 M0 32 C0.59 11.18, 9.4 1.49, 32 0" stroke="#2f9e44" stroke-width="1" fill="none"></path></g><g stroke-linecap="round" transform="translate(319.99999999999994 507.14285714285734) rotate(0 54.285714285714334 56.42857142857133)"><path d="M27.14 0 M27.14 0 C46.31 -0.97, 61.53 -0.08, 81.43 0 M27.14 0 C45.47 -0.44, 62.72 -0.13, 81.43 0 M81.43 0 C99.64 1.36, 108.02 9.48, 108.57 27.14 M81.43 0 C97.64 0.22, 110.6 7.81, 108.57 27.14 M108.57 27.14 C110.22 45.65, 108.09 61.33, 108.57 85.71 M108.57 27.14 C109.34 44.31, 108.7 59.83, 108.57 85.71 M108.57 85.71 C110.24 103.76, 100.96 111.81, 81.43 112.86 M108.57 85.71 C110 102.09, 100.92 112.25, 81.43 112.86 M81.43 112.86 C64.97 114.24, 50.05 112.04, 27.14 112.86 M81.43 112.86 C65.33 112.57, 51.19 112.1, 27.14 112.86 M27.14 112.86 C9.72 114.51, 1.29 105.16, 0 85.71 M27.14 112.86 C10.57 113.4, -0.88 105.41, 0 85.71 M0 85.71 C-0.26 63.86, 1.25 43.68, 0 27.14 M0 85.71 C-0.52 66.12, -0.02 47.01, 0 27.14 M0 27.14 C1.11 9.15, 7.87 0.76, 27.14 0 M0 27.14 C0.69 7.19, 7.16 -0.34, 27.14 0" stroke="#2f9e44" stroke-width="1" fill="none"></path></g><g stroke-linecap="round" transform="translate(461.4285714285714 659.2857142857147) rotate(0 54.285714285714334 56.42857142857133)"><path d="M27.14 0 M27.14 0 C48.37 0.04, 64.19 -1.06, 81.43 0 M27.14 0 C46.76 -0.5, 64.4 -0.02, 81.43 0 M81.43 0 C99.72 1.74, 106.84 8.98, 108.57 27.14 M81.43 0 C98.48 -2.16, 107.92 6.95, 108.57 27.14 M108.57 27.14 C110.66 45.72, 108.87 65.5, 108.57 85.71 M108.57 27.14 C108.83 49.29, 107.21 70.68, 108.57 85.71 M108.57 85.71 C107.77 103.29, 98.07 112.36, 81.43 112.86 M108.57 85.71 C109.13 102.24, 100.12 114.25, 81.43 112.86 M81.43 112.86 C65.99 112.33, 53.15 114.15, 27.14 112.86 M81.43 112.86 C65.23 112.25, 49.45 112.39, 27.14 112.86 M27.14 112.86 C9.47 112.85, 0.63 101.97, 0 85.71 M27.14 112.86 C8.68 114.24, -1.51 102.71, 0 85.71 M0 85.71 C-0.8 64.94, 1.72 46.16, 0 27.14 M0 85.71 C-0.98 68.31, -0.53 50.44, 0 27.14 M0 27.14 C0.26 9.3, 8.61 1.92, 27.14 0 M0 27.14 C2.29 8.21, 10.36 -1.24, 27.14 0" stroke="#2f9e44" stroke-width="1" fill="none"></path></g><g stroke-linecap="round" transform="translate(520 340.7142857142858) rotate(0 130.00000000000006 30.714285714285552)"><path d="M15.36 0 M15.36 0 C78.91 2.36, 141.12 1.16, 244.64 0 M15.36 0 C99.51 1.26, 182.44 0.69, 244.64 0 M244.64 0 C256.28 -1.41, 258.03 3.14, 260 15.36 M244.64 0 C252.93 0.48, 259.99 5.84, 260 15.36 M260 15.36 C258.64 20.78, 260.64 27.33, 260 46.07 M260 15.36 C260.58 25.21, 259.79 35.69, 260 46.07 M260 46.07 C261.47 54.64, 254.59 60.64, 244.64 61.43 M260 46.07 C258.29 56.61, 255.17 60.92, 244.64 61.43 M244.64 61.43 C154.84 59.8, 64.09 59.42, 15.36 61.43 M244.64 61.43 C191.16 62.7, 138.22 61.83, 15.36 61.43 M15.36 61.43 C5.1 60.93, 0.91 56.18, 0 46.07 M15.36 61.43 C6.68 60.88, -0.69 54.75, 0 46.07 M0 46.07 C-1.05 35.79, 1.33 23.94, 0 15.36 M0 46.07 C0.43 34.07, -0.05 23.89, 0 15.36 M0 15.36 C-0.01 5.1, 4 1.02, 15.36 0 M0 15.36 C0.73 7.41, 3.01 0.07, 15.36 0" stroke="#2f9e44" stroke-width="1" fill="none"></path></g><g stroke-linecap="round" transform="translate(517.1428571428571 407.8571428571431) rotate(0 130.00000000000006 30.714285714285552)"><path d="M15.36 0 M15.36 0 C72.96 -2.17, 127.23 0.9, 244.64 0 M15.36 0 C89.24 1.93, 162.76 1.72, 244.64 0 M244.64 0 C256.63 1.1, 258.81 6.22, 260 15.36 M244.64 0 C254.28 1.36, 259 4.59, 260 15.36 M260 15.36 C261.31 22.06, 259.71 33.32, 260 46.07 M260 15.36 C260.26 21.56, 259.43 29.02, 260 46.07 M260 46.07 C258.6 58.17, 252.92 61.57, 244.64 61.43 M260 46.07 C261.58 57.08, 255.98 59.68, 244.64 61.43 M244.64 61.43 C164.8 63.7, 88.16 60.94, 15.36 61.43 M244.64 61.43 C173.48 62.56, 103.55 61.93, 15.36 61.43 M15.36 61.43 C6.41 63.02, 1.82 56.33, 0 46.07 M15.36 61.43 C5.92 59.84, -1.93 56.52, 0 46.07 M0 46.07 C-1.22 38.06, -1.57 25.68, 0 15.36 M0 46.07 C-0.56 39.58, 0.84 32.85, 0 15.36 M0 15.36 C1.6 4.4, 6.6 -0.53, 15.36 0 M0 15.36 C-1.53 6.49, 6.03 2.09, 15.36 0" stroke="#2f9e44" stroke-width="1" fill="none"></path></g><g transform="translate(10 658.2571428571437) rotate(0 24.91015625 16.09999999999991)"><text x="0" y="0" font-family="Helvetica, Segoe UI Emoji" font-size="28px" fill="#2f9e44" text-anchor="start" style="white-space: pre;" direction="ltr" dominant-baseline="text-before-edge">App</text></g><g transform="translate(68.02420668436292 762.3942084942087) rotate(0 45.9169921875 16.09999999999991)"><text x="0" y="0" font-family="Helvetica, Segoe UI Emoji" font-size="28px" fill="#2f9e44" text-anchor="start" style="white-space: pre;" direction="ltr" dominant-baseline="text-before-edge">Header</text></g><g transform="translate(37.94698660714289 516.7571428571437) rotate(0 75.49609375 16.09999999999991)"><text x="0" y="0" font-family="Helvetica, Segoe UI Emoji" font-size="28px" fill="#2f9e44" text-anchor="start" style="white-space: pre;" direction="ltr" dominant-baseline="text-before-edge">gameButton</text></g><g transform="translate(797.1428571428571 268.4169884169887) rotate(0 62.2548828125 16.09999999999991)"><text x="0" y="0" font-family="Helvetica, Segoe UI Emoji" font-size="28px" fill="#2f9e44" text-anchor="start" style="white-space: pre;" direction="ltr" dominant-baseline="text-before-edge">darkMode</text></g><g transform="translate(833.5366229790056 412.471428571429) rotate(0 73.1650390625 16.09999999999991)"><text x="0" y="0" font-family="Helvetica, Segoe UI Emoji" font-size="28px" fill="#2f9e44" text-anchor="start" style="white-space: pre;" direction="ltr" dominant-baseline="text-before-edge">soundMode</text></g><g stroke-linecap="round"><g transform="translate(787.5560128348216 293.3217597662556) rotate(0 -32.93090341655869 23.518168209560827)"><path d="M-1.18 0.56 C-12.23 8.31, -54.87 38.22, -65.41 45.93 M0.4 -0.18 C-10.87 7.78, -55.43 39.74, -66.26 47.22" stroke="#2f9e44" stroke-width="1" fill="none"></path></g><g transform="translate(787.5560128348216 293.3217597662556) rotate(0 -32.93090341655869 23.518168209560827)"><path d="M-48.21 22.89 C-56.43 33.52, -61.31 39.91, -67.16 46.09 M-48.85 23.3 C-55.25 31.47, -61.28 38.26, -65.64 46.62" stroke="#2f9e44" stroke-width="1" fill="none"></path></g><g transform="translate(787.5560128348216 293.3217597662556) rotate(0 -32.93090341655869 23.518168209560827)"><path d="M-36.37 39.65 C-48.93 43.91, -58.23 44.04, -67.16 46.09 M-37.01 40.06 C-47.29 42.55, -57.26 43.74, -65.64 46.62" stroke="#2f9e44" stroke-width="1" fill="none"></path></g></g><mask></mask><g stroke-linecap="round"><g transform="translate(827.6332329120414 441.24987698697396) rotate(0 -22.699416567580386 -2.7969952924308927)"><path d="M0.76 -0.75 C-6.56 -1.95, -37.29 -6.13, -44.92 -7.06 M-0.3 1.46 C-7.74 0.46, -38.53 -3.95, -46.16 -5.58" stroke="#2f9e44" stroke-width="1" fill="none"></path></g><g transform="translate(827.6332329120414 441.24987698697396) rotate(0 -22.699416567580386 -2.7969952924308927)"><path d="M-25.32 -10.48 C-29.05 -9.63, -32.6 -6.93, -47.29 -4.18 M-24.38 -9.83 C-28.86 -9.4, -32.7 -8.53, -46.49 -5.81" stroke="#2f9e44" stroke-width="1" fill="none"></path></g><g transform="translate(827.6332329120414 441.24987698697396) rotate(0 -22.699416567580386 -2.7969952924308927)"><path d="M-27.94 4.65 C-31.1 2.2, -34.09 1.62, -47.29 -4.18 M-27 5.3 C-30.82 2.56, -34.1 0.24, -46.49 -5.81" stroke="#2f9e44" stroke-width="1" fill="none"></path></g></g><mask></mask><g stroke-linecap="round"><g transform="translate(188.98458426339306 532.8571428571445) rotate(0 62.98850551896858 3.558713811986763)"><path d="M-0.73 -0.97 C20.56 0.13, 105.28 5.3, 126.71 6.75 M1.08 1.14 C22.27 2.39, 104.47 7.31, 125.53 8.08" stroke="#2f9e44" stroke-width="1" fill="none"></path></g><g transform="translate(188.98458426339306 532.8571428571445) rotate(0 62.98850551896858 3.558713811986763)"><path d="M95.26 16.21 C102.29 16.44, 110.07 13.71, 126.11 8.8 M97.41 17.23 C102.65 15.1, 110.16 12.99, 126.08 7.53" stroke="#2f9e44" stroke-width="1" fill="none"></path></g><g transform="translate(188.98458426339306 532.8571428571445) rotate(0 62.98850551896858 3.558713811986763)"><path d="M96.28 -4.29 C103.13 0.29, 110.69 1.92, 126.11 8.8 M98.43 -3.26 C103.48 -0.86, 110.76 1.57, 126.08 7.53" stroke="#2f9e44" stroke-width="1" fill="none"></path></g></g><mask></mask><g stroke-linecap="round"><g transform="translate(70.60620588501405 672.123552123553) rotate(0 68.74206829494389 4.373800374042958)"><path d="M0.75 -0.34 C23.2 1.24, 112.83 7.42, 135.57 9.01 M-0.32 -1.56 C22.43 0.22, 114.95 8.32, 137.8 10.31" stroke="#2f9e44" stroke-width="1" fill="none"></path></g><g transform="translate(70.60620588501405 672.123552123553) rotate(0 68.74206829494389 4.373800374042958)"><path d="M108.26 16.56 C118.9 16.16, 129.98 13.64, 138.33 12.18 M109.45 17.67 C120.34 15.64, 130.9 11.87, 137.96 9.38" stroke="#2f9e44" stroke-width="1" fill="none"></path></g><g transform="translate(70.60620588501405 672.123552123553) rotate(0 68.74206829494389 4.373800374042958)"><path d="M110.04 -3.89 C119.94 3.35, 130.36 8.44, 138.33 12.18 M111.23 -2.78 C121.46 3.3, 131.31 7.65, 137.96 9.38" stroke="#2f9e44" stroke-width="1" fill="none"></path></g></g><mask></mask><g stroke-linecap="round"><g transform="translate(168.58199920065164 771.9082896260597) rotate(0 145.46782250792995 -20.721761013989635)"><path d="M-0.44 0.67 C48.05 -6.15, 242.94 -33.67, 291.37 -40.53 M1.54 -0.02 C49.9 -7.2, 242.92 -35.07, 290.86 -42.12" stroke="#2f9e44" stroke-width="1" fill="none"></path></g><g transform="translate(168.58199920065164 771.9082896260597) rotate(0 145.46782250792995 -20.721761013989635)"><path d="M265.56 -26.52 C274.98 -33.26, 283.93 -37.62, 290.56 -42.34 M264.62 -28.9 C271.29 -32.39, 277.69 -34.99, 290.78 -42.51" stroke="#2f9e44" stroke-width="1" fill="none"></path></g><g transform="translate(168.58199920065164 771.9082896260597) rotate(0 145.46782250792995 -20.721761013989635)"><path d="M262.61 -46.82 C273.09 -46.72, 283.04 -44.24, 290.56 -42.34 M261.66 -49.2 C268.96 -47.8, 276.07 -45.48, 290.78 -42.51" stroke="#2f9e44" stroke-width="1" fill="none"></path></g></g><mask></mask><g transform="translate(1265.8792964979489 208.57142857142935) rotate(0 24.91015625 16.09999999999991)"><text x="0" y="0" font-family="Helvetica, Segoe UI Emoji" font-size="28px" fill="#1e1e1e" text-anchor="start" style="white-space: pre;" direction="ltr" dominant-baseline="text-before-edge">App</text></g><g transform="translate(1052.394736742881 357.33629343629354) rotate(0 45.9169921875 16.09999999999991)"><text x="0" y="0" font-family="Helvetica, Segoe UI Emoji" font-size="28px" fill="#1e1e1e" text-anchor="start" style="white-space: pre;" direction="ltr" dominant-baseline="text-before-edge">Header</text></g><g transform="translate(1334.9777973425432 438.41737451737436) rotate(0 75.49609375 16.09999999999991)"><text x="0" y="0" font-family="Helvetica, Segoe UI Emoji" font-size="28px" fill="#1e1e1e" text-anchor="start" style="white-space: pre;" direction="ltr" dominant-baseline="text-before-edge">gameButton</text></g><g transform="translate(1636.0568461178812 453.2822393822398) rotate(0 62.2548828125 16.09999999999991)"><text x="0" y="0" font-family="Helvetica, Segoe UI Emoji" font-size="28px" fill="#1e1e1e" text-anchor="start" style="white-space: pre;" direction="ltr" dominant-baseline="text-before-edge">darkMode</text></g><g transform="translate(1918.389933111124 443.8227799227807) rotate(0 73.16503906249989 16.09999999999991)"><text x="0" y="0" font-family="Helvetica, Segoe UI Emoji" font-size="28px" fill="#1e1e1e" text-anchor="start" style="white-space: pre;" direction="ltr" dominant-baseline="text-before-edge">soundMode</text></g><g transform="translate(1371.2847019033543 146.40926640926727) rotate(0 126.84765625 16.09999999999991)"><text x="0" y="0" font-family="Helvetica, Segoe UI Emoji" font-size="28px" fill="#1971c2" text-anchor="start" style="white-space: pre;" direction="ltr" dominant-baseline="text-before-edge">[isAudio, setIsAudio]</text></g><g transform="translate(1374.1667753830839 196.5254826254827) rotate(0 184.392578125 16.09999999999991)"><text x="0" y="0" font-family="Helvetica, Segoe UI Emoji" font-size="28px" fill="#1971c2" text-anchor="start" style="white-space: pre;" direction="ltr" dominant-baseline="text-before-edge">[isDarkMode, setIsDarkMode]</text></g><g transform="translate(1193.648880535111 478.9579150579152) rotate(0 195.34375 16.09999999999991)"><text x="0" y="0" font-family="Helvetica, Segoe UI Emoji" font-size="28px" fill="#1971c2" text-anchor="start" style="white-space: pre;" direction="ltr" dominant-baseline="text-before-edge">[buttonColour, setButtonColour]</text></g><g transform="translate(1651.0144316330839 507.2200772200781) rotate(0 94.14453125 16.09999999999991)"><text x="0" y="0" font-family="Helvetica, Segoe UI Emoji" font-size="28px" fill="#1971c2" text-anchor="start" style="white-space: pre;" direction="ltr" dominant-baseline="text-before-edge">setIsDarkMode</text></g><g transform="translate(1979.8428733560568 495.17413127413147) rotate(0 65.3720703125 16.09999999999991)"><text x="0" y="0" font-family="Helvetica, Segoe UI Emoji" font-size="28px" fill="#1971c2" text-anchor="start" style="white-space: pre;" direction="ltr" dominant-baseline="text-before-edge">setIsAudio</text></g><g stroke-linecap="round"><g transform="translate(1264.5279451465974 245.05791505791558) rotate(0 -60.642090904050406 53.115730024154345)"><path d="M-1.17 -0.34 C-21.36 17.54, -101.11 90.11, -121.05 107.8 M0.42 -1.56 C-19.89 15.95, -101.44 88.19, -121.7 106.22" stroke="#1e1e1e" stroke-width="1" fill="none"></path></g><g transform="translate(1264.5279451465974 245.05791505791558) rotate(0 -60.642090904050406 53.115730024154345)"><path d="M-107.99 80.78 C-109.97 89.15, -117.7 95, -123.63 107.69 M-107.44 79.99 C-112.08 90.35, -118.89 98.29, -120.97 107.16" stroke="#1e1e1e" stroke-width="1" fill="none"></path></g><g transform="translate(1264.5279451465974 245.05791505791558) rotate(0 -60.642090904050406 53.115730024154345)"><path d="M-94.37 96.14 C-100.61 99.65, -112.54 100.76, -123.63 107.69 M-93.82 95.34 C-103.46 99.95, -115.3 102.21, -120.97 107.16" stroke="#1e1e1e" stroke-width="1" fill="none"></path></g></g><mask></mask><g stroke-linecap="round"><g transform="translate(1309.122539741192 247.76061776061852) rotate(0 37.99230600243084 93.45230850025837)"><path d="M-0.7 -0.36 C12.02 30.88, 63.96 155.96, 76.68 187.26 M1.14 -1.6 C13.75 29.81, 63.97 156.8, 76.26 188.5" stroke="#1e1e1e" stroke-width="1" fill="none"></path></g><g transform="translate(1309.122539741192 247.76061776061852) rotate(0 37.99230600243084 93.45230850025837)"><path d="M55.81 167.68 C62.02 173.54, 68.97 183.01, 75.41 190.06 M55.49 166.93 C63.04 172.7, 68.73 180.25, 76.25 188.13" stroke="#1e1e1e" stroke-width="1" fill="none"></path></g><g transform="translate(1309.122539741192 247.76061776061852) rotate(0 37.99230600243084 93.45230850025837)"><path d="M74.92 160.19 C74.77 168.43, 75.38 180.38, 75.41 190.06 M74.6 159.44 C75.63 167.78, 74.87 177.86, 76.25 188.13" stroke="#1e1e1e" stroke-width="1" fill="none"></path></g></g><mask></mask><g stroke-linecap="round"><g transform="translate(1329.3928100114624 245.05791505791558) rotate(0 148.86380265985383 109.94743999259936)"><path d="M-0.77 0.53 C48.99 37.15, 248.48 182.33, 298.5 218.71 M1.03 -0.24 C50.62 36.66, 247.82 183.42, 297.47 220.14" stroke="#1e1e1e" stroke-width="1" fill="none"></path></g><g transform="translate(1329.3928100114624 245.05791505791558) rotate(0 148.86380265985383 109.94743999259936)"><path d="M269.59 211.33 C276.81 215.43, 285.45 216.71, 298.53 220.09 M268.62 211.22 C276.72 214.16, 285.69 216.91, 298.2 220.01" stroke="#1e1e1e" stroke-width="1" fill="none"></path></g><g transform="translate(1329.3928100114624 245.05791505791558) rotate(0 148.86380265985383 109.94743999259936)"><path d="M281.82 194.85 C285.27 203.75, 290.3 209.91, 298.53 220.09 M280.85 194.74 C285.52 202.25, 291.01 209.67, 298.2 220.01" stroke="#1e1e1e" stroke-width="1" fill="none"></path></g></g><mask></mask><g stroke-linecap="round"><g transform="translate(1340.203620822273 232.8957528957535) rotate(0 284.6306575249963 106.27290261896064)"><path d="M-0.92 -0.56 C93.83 34.77, 472.96 176.32, 567.97 211.78 M0.8 1.76 C95.96 37.27, 475.57 177.81, 570.18 213.11" stroke="#1e1e1e" stroke-width="1" fill="none"></path></g><g transform="translate(1340.203620822273 232.8957528957535) rotate(0 284.6306575249963 106.27290261896064)"><path d="M539.24 211.32 C547.33 213.51, 555.82 214.07, 569.09 214.86 M540.84 212.12 C548.52 213.68, 558.74 213.48, 570.13 212.47" stroke="#1e1e1e" stroke-width="1" fill="none"></path></g><g transform="translate(1340.203620822273 232.8957528957535) rotate(0 284.6306575249963 106.27290261896064)"><path d="M546.39 192.09 C552.58 199.22, 559.22 204.78, 569.09 214.86 M547.99 192.89 C553.49 200.22, 561.54 205.86, 570.13 212.47" stroke="#1e1e1e" stroke-width="1" fill="none"></path></g></g><mask></mask></svg>